<svg id="visual" viewBox="0 0 3840 2160" width="3840" height="2160" xmlns="http://www.w3.org/2000/svg" xmlns:xlink="http://www.w3.org/1999/xlink" version="1.1"><rect x="0" y="0" width="3840" height="2160" fill="#03101a"></rect><defs><linearGradient id="grad1_0" x1="43.8%" y1="0%" x2="100%" y2="100%"><stop offset="14.444444444444446%" stop-color="#fbae3c" stop-opacity="1"></stop><stop offset="85.55555555555554%" stop-color="#fbae3c" stop-opacity="1"></stop></linearGradient></defs><defs><linearGradient id="grad1_1" x1="43.8%" y1="0%" x2="100%" y2="100%"><stop offset="14.444444444444446%" stop-color="#fbae3c" stop-opacity="1"></stop><stop offset="85.55555555555554%" stop-color="#e06860" stop-opacity="1"></stop></linearGradient></defs><defs><linearGradient id="grad1_2" x1="43.8%" y1="0%" x2="100%" y2="100%"><stop offset="14.444444444444446%" stop-color="#92456e" stop-opacity="1"></stop><stop offset="85.55555555555554%" stop-color="#e06860" stop-opacity="1"></stop></linearGradient></defs><defs><linearGradient id="grad1_3" x1="43.8%" y1="0%" x2="100%" y2="100%"><stop offset="14.444444444444446%" stop-color="#92456e" stop-opacity="1"></stop><stop offset="85.55555555555554%" stop-color="#393052" stop-opacity="1"></stop></linearGradient></defs><defs><linearGradient id="grad1_4" x1="43.8%" y1="0%" x2="100%" y2="100%"><stop offset="14.444444444444446%" stop-color="#03101a" stop-opacity="1"></stop><stop offset="85.55555555555554%" stop-color="#393052" stop-opacity="1"></stop></linearGradient></defs><defs><linearGradient id="grad2_0" x1="0%" y1="0%" x2="56.3%" y2="100%"><stop offset="14.444444444444446%" stop-color="#fbae3c" stop-opacity="1"></stop><stop offset="85.55555555555554%" stop-color="#fbae3c" stop-opacity="1"></stop></linearGradient></defs><defs><linearGradient id="grad2_1" x1="0%" y1="0%" x2="56.3%" y2="100%"><stop offset="14.444444444444446%" stop-color="#e06860" stop-opacity="1"></stop><stop offset="85.55555555555554%" stop-color="#fbae3c" stop-opacity="1"></stop></linearGradient></defs><defs><linearGradient id="grad2_2" x1="0%" y1="0%" x2="56.3%" y2="100%"><stop offset="14.444444444444446%" stop-color="#e06860" stop-opacity="1"></stop><stop offset="85.55555555555554%" stop-color="#92456e" stop-opacity="1"></stop></linearGradient></defs><defs><linearGradient id="grad2_3" x1="0%" y1="0%" x2="56.3%" y2="100%"><stop offset="14.444444444444446%" stop-color="#393052" stop-opacity="1"></stop><stop offset="85.55555555555554%" stop-color="#92456e" stop-opacity="1"></stop></linearGradient></defs><defs><linearGradient id="grad2_4" x1="0%" y1="0%" x2="56.3%" y2="100%"><stop offset="14.444444444444446%" stop-color="#393052" stop-opacity="1"></stop><stop offset="85.55555555555554%" stop-color="#03101a" stop-opacity="1"></stop></linearGradient></defs><g transform="translate(3840, 0)"><path d="M0 2052C-92.3 1822.1 -184.7 1592.2 -262.7 1490C-340.8 1387.8 -404.5 1413.3 -548.6 1507.3C-692.7 1601.3 -917.3 1763.8 -961 1664.5C-1004.7 1565.2 -867.7 1204.1 -919.2 1095.4C-970.7 986.8 -1210.7 1130.7 -1385.8 1162.8C-1560.8 1194.9 -1670.8 1115.3 -1773.6 1024C-1876.4 932.7 -1972 829.8 -1928.2 701.8C-1884.5 573.8 -1701.4 420.7 -1698.8 299.5C-1696.2 178.4 -1874.1 89.2 -2052 0L0 0Z" fill="#192237"></path><path d="M0 1641.6C-73.9 1457.7 -147.8 1273.8 -210.2 1192C-272.6 1110.2 -323.6 1130.6 -438.9 1205.8C-554.2 1281 -733.8 1411 -768.8 1331.6C-803.8 1252.2 -694.1 963.3 -735.3 876.4C-776.5 789.5 -968.6 904.6 -1108.6 930.2C-1248.6 955.9 -1336.7 892.2 -1418.9 819.2C-1501.1 746.2 -1577.6 663.9 -1542.6 561.5C-1507.6 459.1 -1361.1 336.6 -1359 239.6C-1357 142.7 -1499.3 71.4 -1641.6 0L0 0Z" fill="#643b65"></path><path d="M0 1231.2C-55.4 1093.3 -110.8 955.3 -157.6 894C-204.5 832.7 -242.7 848 -329.2 904.4C-415.6 960.8 -550.4 1058.3 -576.6 998.7C-602.8 939.1 -520.6 722.4 -551.5 657.3C-582.4 592.1 -726.4 678.4 -831.5 697.7C-936.5 717 -1002.5 669.2 -1064.2 614.4C-1125.9 559.6 -1183.2 497.9 -1156.9 421.1C-1130.7 344.3 -1020.8 252.4 -1019.3 179.7C-1017.7 107 -1124.5 53.5 -1231.2 0L0 0Z" fill="#bd526c"></path><path d="M0 820.8C-36.9 728.8 -73.9 636.9 -105.1 596C-136.3 555.1 -161.8 565.3 -219.4 602.9C-277.1 640.5 -366.9 705.5 -384.4 665.8C-401.9 626.1 -347.1 481.6 -367.7 438.2C-388.3 394.7 -484.3 452.3 -554.3 465.1C-624.3 478 -668.3 446.1 -709.4 409.6C-750.6 373.1 -788.8 331.9 -771.3 280.7C-753.8 229.5 -680.6 168.3 -679.5 119.8C-678.5 71.4 -749.6 35.7 -820.8 0L0 0Z" fill="#f5884e"></path><path d="M0 410.4C-18.5 364.4 -36.9 318.4 -52.5 298C-68.2 277.6 -80.9 282.7 -109.7 301.5C-138.5 320.3 -183.5 352.8 -192.2 332.9C-200.9 313 -173.5 240.8 -183.8 219.1C-194.1 197.4 -242.1 226.1 -277.2 232.6C-312.2 239 -334.2 223.1 -354.7 204.8C-375.3 186.5 -394.4 166 -385.6 140.4C-376.9 114.8 -340.3 84.1 -339.8 59.9C-339.2 35.7 -374.8 17.8 -410.4 0L0 0Z" fill="#fbae3c"></path></g><g transform="translate(0, 2160)"><path d="M0 -2052C101.8 -1929.7 203.5 -1807.5 308.1 -1747C412.6 -1686.6 520 -1688.1 579 -1590.9C638.1 -1493.7 648.9 -1297.9 701.5 -1215C754.1 -1132.1 848.4 -1162.1 1015 -1209.6C1181.6 -1257.1 1420.5 -1322 1464.7 -1229C1508.9 -1136 1358.5 -885.1 1258.3 -726.5C1158.2 -567.9 1108.4 -501.6 1282.7 -466.9C1456.9 -432.1 1855.3 -428.9 2020.8 -356.3C2186.4 -283.8 2119.2 -141.9 2052 0L0 0Z" fill="#192237"></path><path d="M0 -1641.6C81.4 -1543.8 162.8 -1446 246.4 -1397.6C330.1 -1349.3 416 -1350.5 463.2 -1272.7C510.5 -1195 519.2 -1038.3 561.2 -972C603.2 -905.7 678.7 -929.7 812 -967.7C945.2 -1005.6 1136.4 -1057.6 1171.7 -983.2C1207.1 -908.8 1086.8 -708.1 1006.7 -581.2C926.6 -454.3 886.7 -401.3 1026.1 -373.5C1165.6 -345.7 1484.2 -343.1 1616.7 -285.1C1749.1 -227 1695.4 -113.5 1641.6 0L0 0Z" fill="#643b65"></path><path d="M0 -1231.2C61.1 -1157.8 122.1 -1084.5 184.8 -1048.2C247.6 -1012 312 -1012.8 347.4 -954.5C382.9 -896.2 389.4 -778.8 420.9 -729C452.4 -679.3 509 -697.3 609 -725.8C708.9 -754.2 852.3 -793.2 878.8 -737.4C905.3 -681.6 815.1 -531.1 755 -435.9C694.9 -340.7 665.1 -301 769.6 -280.1C874.2 -259.3 1113.2 -257.3 1212.5 -213.8C1311.8 -170.3 1271.5 -85.1 1231.2 0L0 0Z" fill="#bd526c"></path><path d="M0 -820.8C40.7 -771.9 81.4 -723 123.2 -698.8C165 -674.7 208 -675.2 231.6 -636.4C255.2 -597.5 259.6 -519.2 280.6 -486C301.6 -452.9 339.3 -464.8 406 -483.8C472.6 -502.8 568.2 -528.8 585.9 -491.6C603.6 -454.4 543.4 -354 503.3 -290.6C463.3 -227.2 443.4 -200.6 513.1 -186.7C582.8 -172.8 742.1 -171.6 808.3 -142.5C874.6 -113.5 847.7 -56.8 820.8 0L0 0Z" fill="#f5884e"></path><path d="M0 -410.4C20.4 -385.9 40.7 -361.5 61.6 -349.4C82.5 -337.3 104 -337.6 115.8 -318.2C127.6 -298.7 129.8 -259.6 140.3 -243C150.8 -226.4 169.7 -232.4 203 -241.9C236.3 -251.4 284.1 -264.4 292.9 -245.8C301.8 -227.2 271.7 -177 251.7 -145.3C231.6 -113.6 221.7 -100.3 256.5 -93.4C291.4 -86.4 371.1 -85.8 404.2 -71.3C437.3 -56.8 423.8 -28.4 410.4 0L0 0Z" fill="#fbae3c"></path></g></svg>